# xmcd
#
# Track frame offsets: 
#        150
#        11963
#        22700
#        32341
#        42142
#        52510
#        66717
#        77277
#        91771
#        111732
#        126051
#        138196
#        149365
#        160837
#        174394
#        185820
#        197621
#        210765
#        223228
#        231164
#
# Disc length: 3250 seconds
#
# Revision: 0
# Processed by: cddbd v1.5.2PL0 Copyright (c) Steve Scherf et al.
# Submitted via: ExactAudioCopyFreeDBPlugin 1.0
#
DISCID=090cb014
DTITLE=Various Artist - Blues, Blues Christmas: Volume 4 - 1925-1962 [CD2]
DYEAR=2014
DGENRE=Christmas
TTITLE0=Little T-Bone - Christmas Time
TTITLE1=Nathaniel Mayer - Mr. Santa Claus
TTITLE2=Marvin and Johnny - It's Christmas
TTITLE3=Prairie Ramblers - Cowboy Santa Claus
TTITLE4=Kathy and Jimmy Zee - Santa Claus Rock And Roll
TTITLE5=Nap Hepburn and March Of Dimes - Tell Santa Claus
TTITLE6=Johnny Moore's Blazers with Frankie Ervin - Christmas Eve Baby
TTITLE7=Dixon Brothers - A Mother, A Father, A Baby
TTITLE8=Gribble, Lusk, York - Christmas Eve
TTITLE9=Dixon Brothers - Answer To Maple On The Hill - Part 4
TTITLE10=Golden Gate Quartet - Silent Night
TTITLE11=The Victory Five - Children Go Where I Send Thee
TTITLE12=Middle Georgia Four - Twenty-Fifth Day Of December
TTITLE13=Ward Singers - Sweet Little Angel Boy
TTITLE14=Angelic Gospel Singers - A Child Is Born
TTITLE15=Ward Singers - Glory Glory To The King
TTITLE16=The Falcons and Orchestra - Can This Be Christmas
TTITLE17=Lord Executor with Gerald Clark and His Caribbean Serenaders - 
TTITLE17=Christmas Is A Joyful Day
TTITLE18=The Qualities - Happy New Year To You!
TTITLE19=The Heartbeats - After New Year's Eve
EXTD=
EXTT0=
EXTT1=
EXTT2=
EXTT3=
EXTT4=
EXTT5=
EXTT6=
EXTT7=
EXTT8=
EXTT9=
EXTT10=
EXTT11=
EXTT12=
EXTT13=
EXTT14=
EXTT15=
EXTT16=
EXTT17=
EXTT18=
EXTT19=
PLAYORDER=
